<?xml version="1.0" encoding="UTF-8" standalone="no"?> 
<svg id="Layer_1" data-name="Layer 1" xmlns="http://www.w3.org/2000/svg" viewBox="0 0 64 64">
  <title>decoration_2</title>
  <path d="M17.59,8.59a1,1,0,0,1-.71-.3L15.46,6.88a1,1,0,0,1,1.42-1.42l1.41,1.42a1,1,0,0,1,0,1.41A1,1,0,0,1,17.59,8.59Z" fill="#233E8D" stroke="#233E8D" stroke-width="2"/>
  <path d="M20.41,8.59a1,1,0,0,1-.7-.3,1,1,0,0,1,0-1.41l1.41-1.42a1,1,0,0,1,1.42,1.42L21.12,8.29A1,1,0,0,1,20.41,8.59Z" fill="#233E8D" stroke="#233E8D" stroke-width="2"/>
  <path d="M21.83,12.83a1,1,0,0,1-.71-.29l-1.41-1.42a1,1,0,1,1,1.41-1.41l1.42,1.41a1,1,0,0,1,0,1.42A1,1,0,0,1,21.83,12.83Z" fill="#233E8D" stroke="#233E8D" stroke-width="2"/>
  <path d="M16.17,12.83a1,1,0,0,1-.71-.29,1,1,0,0,1,0-1.42l1.42-1.41a1,1,0,1,1,1.41,1.41l-1.41,1.42A1,1,0,0,1,16.17,12.83Z" fill="#233E8D" stroke="#233E8D" stroke-width="2"/>
  <path d="M43.59,8.59a1,1,0,0,1-.71-.3L41.46,6.88a1,1,0,0,1,1.42-1.42l1.41,1.42a1,1,0,0,1,0,1.41A1,1,0,0,1,43.59,8.59Z" fill="#233E8D" stroke="#233E8D" stroke-width="2"/>
  <path d="M46.41,8.59a1,1,0,0,1-.7-.3,1,1,0,0,1,0-1.41l1.41-1.42a1,1,0,1,1,1.42,1.42L47.12,8.29A1,1,0,0,1,46.41,8.59Z" fill="#233E8D" stroke="#233E8D" stroke-width="2"/>
  <path d="M47.83,12.83a1,1,0,0,1-.71-.29l-1.41-1.42a1,1,0,1,1,1.41-1.41l1.42,1.41a1,1,0,0,1,0,1.42A1,1,0,0,1,47.83,12.83Z" fill="#233E8D" stroke="#233E8D" stroke-width="2"/>
  <path d="M42.17,12.83a1,1,0,0,1-.71-.29,1,1,0,0,1,0-1.42l1.42-1.41a1,1,0,1,1,1.41,1.41l-1.41,1.42A1,1,0,0,1,42.17,12.83Z" fill="#233E8D" stroke="#233E8D" stroke-width="2"/>
  <path d="M37.71,31.85a1,1,0,0,1-.59-.19L32,27.94l-5.12,3.72a1,1,0,0,1-1.54-1.11l2-6-5.12-3.72A1,1,0,0,1,22.77,19h6.32l2-6A1,1,0,0,1,33,13l2,6h6.32a1,1,0,0,1,.59,1.81L36.7,24.53l2,6a1,1,0,0,1-.37,1.11A1,1,0,0,1,37.71,31.85ZM32,25.71a1,1,0,0,1,.59.19l3.21,2.34-1.22-3.79a1,1,0,0,1,.36-1.11L38.16,21h-4a1,1,0,0,1-1-.69L32,16.53l-1.23,3.78a1,1,0,0,1-.95.69h-4l3.22,2.34a1,1,0,0,1,.36,1.11L28.2,28.24l3.21-2.34A1,1,0,0,1,32,25.71Z" fill="#233E8D" stroke="#233E8D" stroke-width="2"/>
  <path d="M55.71,39.85a1,1,0,0,1-.59-.19L50,35.94l-5.12,3.72a1,1,0,0,1-1.54-1.11l2-6-5.12-3.72A1,1,0,0,1,40.77,27h6.32l2-6A1,1,0,0,1,51,21l2,6h6.32a1,1,0,0,1,.59,1.81L54.7,32.53l2,6a1,1,0,0,1-.37,1.11A1,1,0,0,1,55.71,39.85ZM50,33.71a1,1,0,0,1,.59.19l3.21,2.34-1.22-3.79a1,1,0,0,1,.36-1.11L56.16,29h-4a1,1,0,0,1-1-.69L50,24.53l-1.23,3.78a1,1,0,0,1-1,.69h-4l3.22,2.34a1,1,0,0,1,.36,1.11L46.2,36.24l3.21-2.34A1,1,0,0,1,50,33.71Z" fill="#233E8D" stroke="#233E8D" stroke-width="2"/>
  <path d="M19.71,39.85a1,1,0,0,1-.59-.19L14,35.94,8.88,39.66a1,1,0,0,1-1.54-1.11l2-6L4.18,28.81A1,1,0,0,1,4.77,27h6.32l2-6A1,1,0,0,1,15,21l2,6h6.32a1,1,0,0,1,.59,1.81L18.7,32.53l2,6a1,1,0,0,1-.37,1.11A1,1,0,0,1,19.71,39.85ZM14,33.71a1,1,0,0,1,.59.19l3.21,2.34-1.22-3.79a1,1,0,0,1,.36-1.11L20.16,29h-4a1,1,0,0,1-.95-.69L14,24.53l-1.23,3.78a1,1,0,0,1-.95.69h-4l3.22,2.34a1,1,0,0,1,.36,1.11L10.2,36.24l3.21-2.34A1,1,0,0,1,14,33.71Z" fill="#233E8D" stroke="#233E8D" stroke-width="2"/>
  <path d="M32,52a1,1,0,0,1-1-1V27a1,1,0,0,1,2,0V51A1,1,0,0,1,32,52Z" fill="#233E8D" stroke="#233E8D" stroke-width="2"/>
  <path d="M44,52a1,1,0,0,1-.6-.2,1,1,0,0,1-.2-1.4l1.2-1.6A23.12,23.12,0,0,0,49,35a1,1,0,0,1,2,0,25.2,25.2,0,0,1-5,15l-1.2,1.6A1,1,0,0,1,44,52Z" fill="#233E8D" stroke="#233E8D" stroke-width="2"/>
  <path d="M20,52a1,1,0,0,1-.8-.4L18,50a25.2,25.2,0,0,1-5-15,1,1,0,0,1,2,0,23.12,23.12,0,0,0,4.6,13.8l1.2,1.6a1,1,0,0,1-.2,1.4A1,1,0,0,1,20,52Z" fill="#233E8D" stroke="#233E8D" stroke-width="2"/>
</svg>
