<?xml version="1.0" encoding="UTF-8"?>
<!DOCTYPE svg PUBLIC "-//W3C//DTD SVG 1.1//EN" "http://www.w3.org/Graphics/SVG/1.1/DTD/svg11.dtd">
<!-- Creator: CorelDRAW -->
<svg xmlns="http://www.w3.org/2000/svg" xml:space="preserve" width="512px" height="512px" version="1.1" style="shape-rendering:geometricPrecision; text-rendering:geometricPrecision; image-rendering:optimizeQuality; fill-rule:evenodd; clip-rule:evenodd"
viewBox="0 0 512 512"
 xmlns:xlink="http://www.w3.org/1999/xlink">
 <defs>
  <style type="text/css">
   <![CDATA[
    .fil0 {fill:#233E8D; stroke:#233E8D; stroke-width:30;}
   ]]>
  </style>
 </defs>
 <g id="Layer_x0020_1">
  <metadata id="CorelCorpID_0Corel-Layer"/>
  <g id="_484136008">
   <g>
    <g>
     <path class="fil0" d="M387 448c-52,0 -98,-18 -143,-36 -73,-30 -143,-58 -233,1 -3,2 -8,1 -10,-2 -2,-3 -1,-8 2,-10 97,-64 173,-33 247,-2 74,29 150,60 251,2 3,-2 8,-1 10,2 2,4 1,8 -2,10 -45,26 -85,35 -122,35z"/>
    </g>
    <g>
     <path class="fil0" d="M465 433c-3,0 -5,-1 -7,-3 -32,-52 -56,-96 -76,-130 -34,-61 -56,-98 -71,-99 0,0 0,0 0,0 -17,0 -40,41 -79,108 -13,22 -28,47 -45,75 -2,4 -7,5 -10,3 -3,-2 -5,-7 -2,-10 17,-28 31,-53 44,-75 46,-79 67,-115 92,-115 0,0 0,0 0,0 24,0 43,33 84,106 19,34 44,78 76,129 2,4 1,8 -3,10 -1,1 -2,1 -3,1z"/>
    </g>
    <g>
     <path class="fil0" d="M79 383c-1,0 -3,-1 -4,-1 -3,-2 -5,-7 -2,-10 12,-21 24,-41 34,-58 48,-82 70,-120 96,-120 20,-1 37,20 59,56 2,3 2,8 -2,10 -4,2 -8,1 -10,-3 -22,-35 -36,-49 -47,-49 -18,0 -43,43 -84,113 -10,17 -21,37 -34,58 -2,2 -4,4 -6,4z"/>
    </g>
    <g>
     <path class="fil0" d="M309 306c-3,0 -5,-2 -6,-4l-16 -25 -16 25c-1,2 -4,4 -6,4 0,0 0,0 0,0 -3,0 -5,-2 -6,-4l-19 -29c-2,-3 -1,-8 2,-10 3,-2 8,-1 10,2l12 20 16 -25c1,-2 4,-3 6,-3 0,0 0,0 0,0 3,0 5,1 7,3l15 25 16 -25c1,0 1,-1 2,-1 0,-1 1,-2 2,-2 0,0 2,-1 3,-1 0,0 2,1 2,1 1,0 2,1 3,2 0,0 0,1 1,1l16 25 13 -21c2,-4 7,-5 10,-2 3,2 4,6 2,10l-20 30c-1,2 -3,4 -6,4 0,0 0,0 0,0 -2,0 -5,-2 -6,-4l-16 -25 -16 25c-1,2 -3,4 -5,4 0,0 0,0 0,0z"/>
    </g>
    <g>
     <path class="fil0" d="M207 153c-24,0 -44,-20 -44,-45 0,-24 20,-44 44,-44 25,0 44,20 44,44 0,25 -19,45 -44,45zm0 -75c-16,0 -30,13 -30,30 0,17 14,30 30,30 17,0 30,-13 30,-30 0,-17 -13,-30 -30,-30z"/>
    </g>
   </g>
  </g>
 </g>
</svg>
