<?xml version="1.0" encoding="UTF-8" standalone="no"?> 
<svg xmlns="http://www.w3.org/2000/svg" width="3007.332" height="2559.987" viewBox="0 0 2004.888 1706.658">
  <g id="Layer_x0020_1" transform="translate(-331.289 -313.332)">
    <path id="Path_148" data-name="Path 148" d="M1746.52,844.8V458.82H1577.43V686.98l11.71,10.93Zm53.34-412.65V906.09h0a26.665,26.665,0,0,1-44.86,19.5l.04-.04L1552.9,736.88l-18.98-17.72a26.608,26.608,0,0,1-9.81-20.67V432.16a26.669,26.669,0,0,1,26.67-26.67h222.43a26.669,26.669,0,0,1,26.67,26.67Z" fill="#233E8D" stroke="#233E8D" stroke-width="120"/>
    <path id="Path_149" data-name="Path 149" d="M1186.12,321.76l403.02,376.15,404.35,377.39.07-.02a26.665,26.665,0,0,1-18.2,46.16H1831.3v871.88a26.669,26.669,0,0,1-26.67,26.67H528.68a26.669,26.669,0,0,1-26.67-26.67V1121.44H357.96a26.674,26.674,0,0,1-16.86-47.34L744.18,697.9l404.31-377.36-.04-.04a26.686,26.686,0,0,1,37.65,1.25Zm366.77,415.11L1166.67,376.4,780.45,736.87,425.54,1068.11H528.69a26.669,26.669,0,0,1,26.67,26.67v871.88H1777.97V1094.78a26.669,26.669,0,0,1,26.67-26.67h103.15L1552.88,736.87Z" fill="#233E8D" stroke="#233E8D" stroke-width="120"/>
    <path id="Path_150" data-name="Path 150" d="M887.25,1302.52h558.83a56.284,56.284,0,0,1,56.14,56.15v423.69a56.282,56.282,0,0,1-56.14,56.14H887.25a56,56,0,0,1-39.67-16.47h0a27.724,27.724,0,0,1-1.93-2.15,55.928,55.928,0,0,1-14.54-37.52V1358.67a56.316,56.316,0,0,1,56.14-56.15Zm558.83,53.34H887.25a2.85,2.85,0,0,0-2.8,2.81v423.69a3.022,3.022,0,0,0,.39,1.51l.46.44h0a2.79,2.79,0,0,0,1.96.84h558.83a2.815,2.815,0,0,0,2.8-2.8V1358.66a2.817,2.817,0,0,0-2.8-2.81Z" fill="#233E8D" stroke="#233E8D" stroke-width="120"/>
    <path id="Path_151" data-name="Path 151" d="M1348.06,1329.19a26.67,26.67,0,1,0,53.34,0V1196.2a235.379,235.379,0,0,0-234.74-234.74h0A235.379,235.379,0,0,0,931.92,1196.2v132.99a26.67,26.67,0,1,0,53.34,0V1196.2a182.015,182.015,0,0,1,181.4-181.4h0a182.015,182.015,0,0,1,181.4,181.4v132.99Z" fill="#233E8D" stroke="#233E8D" stroke-width="120"/>
    <path id="Path_152" data-name="Path 152" d="M1166.65,1411.91a38.839,38.839,0,1,1-.01-.02Zm33.87,67.36a47.9,47.9,0,0,0-81.76,33.88c0,41.51,50.9,64.75,81.77,33.87a47.9,47.9,0,0,0,0-67.74Z" fill="#233E8D" stroke="#233E8D" stroke-width="120"/>
    <path id="Path_153" data-name="Path 153" d="M1193.33,1587.72a26.67,26.67,0,0,0-53.34,0v114.72a26.67,26.67,0,0,0,53.34,0Z" fill="#233E8D" stroke="#233E8D" stroke-width="120"/>
  </g>
</svg>
