<?xml version="1.0" encoding="utf-8"?>
<!-- Generator: Adobe Illustrator 27.5.0, SVG Export Plug-In . SVG Version: 6.00 Build 0)  -->
<svg version="1.1" xmlns="http://www.w3.org/2000/svg" xmlns:xlink="http://www.w3.org/1999/xlink" x="0px" y="0px"
	 viewBox="0 0 1200 800" style="enable-background:new 0 0 1200 800;" xml:space="preserve">
<g id="Background">
	<radialGradient id="SVGID_1_" cx="547.0224" cy="-111.9384" r="1045.3359" gradientUnits="userSpaceOnUse">
		<stop  offset="0.0427" style="stop-color:#FFFFFF"/>
		<stop  offset="0.2834" style="stop-color:#FDFEFF"/>
		<stop  offset="0.4162" style="stop-color:#F5FAFD"/>
		<stop  offset="0.5228" style="stop-color:#E7F3FA"/>
		<stop  offset="0.6155" style="stop-color:#D3E9F6"/>
		<stop  offset="0.6991" style="stop-color:#BADCF1"/>
		<stop  offset="0.7762" style="stop-color:#9BCDEB"/>
		<stop  offset="0.8484" style="stop-color:#76BAE4"/>
		<stop  offset="0.9166" style="stop-color:#4BA4DC"/>
		<stop  offset="0.9793" style="stop-color:#1B8DD2"/>
		<stop  offset="1" style="stop-color:#0A84CF"/>
	</radialGradient>
	<polygon style="fill:url(#SVGID_1_);" points="0,800 0,0 1200,0 1200,800 	"/>
</g>
<g id="Graphic_Elements">
	<g>
		<defs>
			
				<rect id="SVGID_00000167366904537945565260000007200913486811225255_" x="200" y="-200" transform="matrix(-1.836970e-16 1 -1 -1.836970e-16 1000 -200)" width="800" height="1200"/>
		</defs>
		<clipPath id="SVGID_00000002365213680510186740000004068617785289885329_">
			<use xlink:href="#SVGID_00000167366904537945565260000007200913486811225255_"  style="overflow:visible;"/>
		</clipPath>
		<g style="clip-path:url(#SVGID_00000002365213680510186740000004068617785289885329_);">
			
				<linearGradient id="SVGID_00000004516943269420997170000011163631118037046913_" gradientUnits="userSpaceOnUse" x1="-201.2055" y1="76.6574" x2="1149.0547" y2="733.6779">
				<stop  offset="0" style="stop-color:#89CFF0;stop-opacity:0"/>
				<stop  offset="0.4076" style="stop-color:#89CFF0;stop-opacity:0.2"/>
				<stop  offset="0.9855" style="stop-color:#005DAB"/>
			</linearGradient>
			<path style="fill:url(#SVGID_00000004516943269420997170000011163631118037046913_);" d="M-49.662-172.629
				c-8.565,19.759-16.179,39.803-22.215,60.265c-6.084,20.44-10.729,41.208-14.058,62.1c-6.592,41.803-7.7,84.16-3.45,125.83
				c4.17,41.676,13.277,82.674,26.647,122.15c13.404,39.475,30.91,77.462,51.731,113.483
				c20.851,36.013,44.958,70.104,71.744,101.925c13.363,15.938,27.446,31.265,42.054,46.068c3.68,3.675,7.297,7.407,11.083,10.977
				c3.769,3.585,7.441,7.264,11.304,10.75c7.586,7.114,15.341,14.047,23.195,20.865c31.462,27.225,65.067,51.966,100.247,74.21
				c35.172,22.259,71.947,42.034,109.973,59.076c37.978,17.132,77.137,31.658,117.147,43.278
				c19.988,5.869,40.198,10.974,60.552,15.421c20.353,4.458,40.876,8.139,61.504,11.1c82.492,11.779,166.853,11.822,249.267-1.705
				c41.182-6.795,81.848-17,121.28-30.926c39.421-13.93,77.599-31.616,113.578-53.264c36.001-21.596,69.705-47.321,99.926-77.007
				c30.231-29.671,56.901-63.314,79.257-100.122c-16.995,39.577-40.25,76.781-68.206,110.299
				c-13.939,16.805-29.137,32.619-45.244,47.498c-16.144,14.843-33.303,28.617-51.164,41.452
				c-35.79,25.595-74.66,46.969-115.279,64.204c-40.631,17.248-83.028,30.355-126.244,39.557
				c-86.481,18.445-176.076,21.329-263.872,10.739c-43.924-5.286-87.402-14.148-130.011-26.061
				c-21.294-5.999-42.379-12.749-63.176-20.3c-20.772-7.617-41.276-15.958-61.451-25.032c-20.149-9.125-40.023-18.878-59.457-29.473
				c-19.414-10.626-38.476-21.911-57.054-33.958c-37.147-24.094-72.54-50.976-105.385-80.73
				c-8.201-7.448-16.298-15.01-24.202-22.775c-4.005-3.825-7.822-7.848-11.727-11.775c-3.921-3.912-7.675-7.991-11.485-12.012
				c-15.167-16.157-29.583-33.016-43.285-50.434c-27.338-34.882-51.633-72.192-71.975-111.576
				c-20.362-39.356-36.823-80.765-48.429-123.493c-11.59-42.716-18.243-86.773-19.151-130.866
				c-0.249-11.02-0.035-22.042,0.409-33.034c0.241-5.496,0.669-10.985,0.996-16.467c0.507-5.477,1-10.948,1.621-16.403
				c2.574-21.813,6.524-43.42,12.11-64.546c5.506-21.141,12.589-41.8,21.051-61.779C-70.964-135.073-60.957-154.304-49.662-172.629z
				"/>
		</g>
		<g style="clip-path:url(#SVGID_00000002365213680510186740000004068617785289885329_);">
			
				<linearGradient id="SVGID_00000163788226595414538110000004003216845924353666_" gradientUnits="userSpaceOnUse" x1="-296.8714" y1="379.6938" x2="1422.9952" y2="99.6808">
				<stop  offset="0" style="stop-color:#89CFF0;stop-opacity:0"/>
				<stop  offset="0.6548" style="stop-color:#89CFF0;stop-opacity:0.2"/>
				<stop  offset="0.6761" style="stop-color:#7BC3E9;stop-opacity:0.2494"/>
				<stop  offset="0.7498" style="stop-color:#4F9FD3;stop-opacity:0.4202"/>
				<stop  offset="0.821" style="stop-color:#2D82C2;stop-opacity:0.5852"/>
				<stop  offset="0.8881" style="stop-color:#146EB5;stop-opacity:0.7408"/>
				<stop  offset="0.9496" style="stop-color:#0561AE;stop-opacity:0.8831"/>
				<stop  offset="1" style="stop-color:#005DAB"/>
			</linearGradient>
			<path style="fill:url(#SVGID_00000163788226595414538110000004003216845924353666_);" d="M-336.877-196.188
				c3.37,55.572,11.266,110.372,24.266,163.703c12.89,53.341,30.571,105.199,52.404,155.013
				c43.676,99.656,103.896,191.07,176.046,270.986C-11.929,473.376,72.27,541.88,164.685,595.569
				c46.22,26.806,94.449,49.988,144.239,68.866c24.898,9.421,50.147,17.868,75.723,25.108c25.559,7.292,51.409,13.508,77.484,18.498
				c26.06,5.051,52.34,8.959,78.723,11.615c26.374,2.739,52.854,4.217,79.325,4.435c52.94,0.513,105.87-4.127,157.8-14.037
				c12.979-2.494,25.902-5.284,38.732-8.455c6.392-1.666,12.853-3.104,19.195-4.957c6.361-1.786,12.764-3.453,19.06-5.459
				c25.304-7.653,50.246-16.555,74.63-26.839c24.387-10.27,48.26-21.817,71.432-34.688c23.212-12.803,45.672-27.004,67.34-42.375
				c43.305-30.781,83.326-66.434,119.023-106.288c35.693-39.861,66.863-84.034,92.978-131.339
				c26.109-47.316,47.068-97.826,62.508-150.369c15.517-52.544,25.321-107.084,30.452-162.511
				c3.731,55.554,0.701,111.922-8.939,167.509c-9.7,55.571-26.163,110.336-49.185,162.555
				c-23.018,52.21-52.497,101.919-87.815,147.384c-17.637,22.749-36.738,44.416-57.038,64.954
				c-20.354,20.48-41.903,39.845-64.603,57.817c-45.313,36.075-95.176,66.536-147.794,91.128
				c-26.33,12.259-53.347,23.09-80.916,32.3c-6.859,2.412-13.825,4.476-20.761,6.652l-5.206,1.617
				c-1.736,0.538-3.492,1.002-5.237,1.507l-10.494,2.954c-14.018,3.846-28.146,7.277-42.347,10.382
				c-28.403,6.208-57.159,10.734-86.045,13.861c-28.893,3.107-57.939,4.602-86.965,4.737c-29.029,0.068-58.036-1.34-86.889-4.082
				c-28.843-2.831-57.531-6.978-85.96-12.456c-28.415-5.541-56.573-12.336-84.337-20.431c-27.747-8.146-55.138-17.459-82.008-28.047
				c-53.736-21.187-105.478-47.156-154.513-77.319c-98.1-60.3-185.482-137.183-257.549-226.018
				c-36.059-44.395-68.228-91.839-95.945-141.636c-27.719-49.79-50.983-101.953-69.057-155.716
				c-18.077-53.751-30.947-109.107-37.95-164.974c-3.505-27.93-5.463-55.989-5.987-83.986
				C-340.656-140.537-339.589-168.486-336.877-196.188z"/>
		</g>
		<g style="clip-path:url(#SVGID_00000002365213680510186740000004068617785289885329_);">
			
				<linearGradient id="SVGID_00000162331279900106120920000016455443552686279554_" gradientUnits="userSpaceOnUse" x1="278.3165" y1="-573.6432" x2="176.0261" y2="924.4938">
				<stop  offset="0" style="stop-color:#89CFF0;stop-opacity:0"/>
				<stop  offset="0.2411" style="stop-color:#89CFF0;stop-opacity:0.2"/>
				<stop  offset="0.3595" style="stop-color:#7AC2E8;stop-opacity:0.3272"/>
				<stop  offset="0.5879" style="stop-color:#52A1D4;stop-opacity:0.5727"/>
				<stop  offset="0.9008" style="stop-color:#126CB4;stop-opacity:0.909"/>
				<stop  offset="0.9855" style="stop-color:#005DAB"/>
			</linearGradient>
			<path style="fill:url(#SVGID_00000162331279900106120920000016455443552686279554_);" d="M566.254-526.725
				c-21.529-0.524-42.965-0.06-64.198,2.024c-21.229,2.03-42.222,5.52-62.837,10.273c-41.221,9.577-80.898,24.446-117.928,44.022
				c-37.066,19.505-71.65,43.332-103.224,70.539c-31.56,27.239-60.201,57.72-85.776,90.538
				c-25.557,32.841-48.11,67.98-67.552,104.75c-9.758,18.367-18.68,37.173-26.919,56.269c-2.025,4.79-4.127,9.544-6.016,14.392
				c-1.909,4.838-3.94,9.623-5.722,14.512c-3.747,9.701-7.263,19.492-10.636,29.33C2.017-50.698-8.305-10.264-15.721,30.692
				c-7.433,40.955-11.962,82.463-13.488,124.105c-1.628,41.631-0.397,83.379,3.846,124.826c2.061,20.73,4.914,41.379,8.43,61.914
				c3.505,20.538,7.795,40.943,12.791,61.175c20.039,80.884,51.657,159.095,95.123,230.41
				c21.752,35.622,46.472,69.487,74.179,100.81c27.706,31.313,58.426,60.063,91.994,85.289
				c33.528,25.266,70.021,46.853,108.878,63.725c38.847,16.887,80.04,28.982,122.547,35.892
				c-43.063-0.901-86.274-8.495-127.834-21.829c-20.807-6.614-41.169-14.767-61.005-24.113
				c-19.816-9.393-39.023-20.13-57.622-31.868c-37.155-23.569-71.554-51.578-102.772-82.76
				c-31.235-31.189-59.295-65.569-84.042-102.173C5.753,582.854-30.542,500.89-53.674,415.537
				c-11.583-42.698-19.686-86.324-24.632-130.289c-2.431-21.989-4.087-44.066-4.892-66.177c-0.735-22.112-0.698-44.248,0.141-66.353
				c0.896-22.101,2.48-44.182,5.007-66.172c2.564-21.982,5.87-43.886,10.065-65.627c8.393-43.474,20.028-86.369,35.283-127.979
				c3.826-10.396,7.797-20.739,12.028-30.98c2.042-5.148,4.339-10.195,6.514-15.289c2.154-5.102,4.527-10.113,6.824-15.153
				c9.284-20.121,19.501-39.811,30.504-59.048c22.074-38.43,47.54-74.951,76.412-108.585c28.839-33.643,61.043-64.441,96.294-91.233
				c35.245-26.773,73.585-49.473,114.114-66.861c10.121-4.366,20.418-8.304,30.773-12.018c5.185-1.839,10.433-3.503,15.637-5.256
				c5.267-1.585,10.523-3.182,15.813-4.653c21.185-5.8,42.695-10.247,64.373-12.997c21.663-2.83,43.47-4.017,65.164-3.672
				C523.448-532.377,545.029-530.317,566.254-526.725z"/>
		</g>
		<g style="clip-path:url(#SVGID_00000002365213680510186740000004068617785289885329_);">
			
				<linearGradient id="SVGID_00000018198461042616095820000005608057911201761412_" gradientUnits="userSpaceOnUse" x1="-38.4732" y1="-548.5975" x2="866.4885" y2="940.4938">
				<stop  offset="0" style="stop-color:#89CFF0;stop-opacity:0"/>
				<stop  offset="0.6548" style="stop-color:#89CFF0;stop-opacity:0.2"/>
				<stop  offset="0.6761" style="stop-color:#7BC3E9;stop-opacity:0.2494"/>
				<stop  offset="0.7498" style="stop-color:#4F9FD3;stop-opacity:0.4202"/>
				<stop  offset="0.821" style="stop-color:#2D82C2;stop-opacity:0.5852"/>
				<stop  offset="0.8881" style="stop-color:#146EB5;stop-opacity:0.7408"/>
				<stop  offset="0.9496" style="stop-color:#0561AE;stop-opacity:0.8831"/>
				<stop  offset="1" style="stop-color:#005DAB"/>
			</linearGradient>
			<path style="fill:url(#SVGID_00000018198461042616095820000005608057911201761412_);" d="M480.308-801.79
				c-50.247,23.978-98.078,51.862-142.633,83.925c-44.605,31.965-86.039,67.814-124.018,106.746
				C137.674-533.237,75.54-443.114,28.54-346.246C-18.379-249.323-50.279-145.57-65.363-39.762
				c-7.501,52.902-10.891,106.305-9.705,159.541c0.611,26.614,2.256,53.187,5.143,79.61c2.833,26.427,6.771,52.722,11.932,78.763
				c5.097,26.051,11.337,51.878,18.777,77.329c7.358,25.474,15.926,50.574,25.657,75.192c19.391,49.264,43.555,96.584,72.228,141
				c7.183,11.094,14.618,22.026,22.372,32.728c3.943,5.3,7.7,10.748,11.798,15.932c4.042,5.227,7.99,10.535,12.213,15.619
				c16.589,20.583,34.201,40.361,52.883,59.104c18.672,18.75,38.333,36.545,58.959,53.194c20.579,16.712,42.17,32.201,64.549,46.517
				c44.782,28.589,92.849,52.306,143.186,70.438c50.342,18.127,102.983,30.441,156.632,36.895
				c53.656,6.445,108.339,6.917,162.837,1.511c54.526-5.335,108.76-16.714,162.061-32.759
				c-50.094,24.306-103.479,42.651-158.621,54.575c-55.15,11.863-112.09,17.155-169.133,15.412
				c-57.032-1.743-114.171-10.413-169.566-26.089c-27.706-7.81-54.957-17.385-81.611-28.494
				c-26.622-11.181-52.658-23.888-77.835-38.184c-50.443-28.463-97.39-63.252-139.931-102.795
				c-21.244-19.805-41.421-40.783-60.305-62.88c-4.81-5.453-9.336-11.135-13.956-16.747l-3.453-4.22
				c-1.15-1.407-2.239-2.86-3.362-4.289l-6.676-8.618c-8.825-11.55-17.308-23.358-25.514-35.356
				c-16.413-23.997-31.4-48.953-45.138-74.555c-13.723-25.615-26.009-51.978-37.026-78.832
				c-10.957-26.881-20.537-54.297-28.822-82.07c-8.201-27.797-15.122-55.945-20.713-84.352c-5.527-28.417-9.796-57.068-12.711-85.84
				c-2.863-28.776-4.509-57.66-4.778-86.539c-0.527-57.76,4.127-115.466,13.684-172.236
				c19.079-113.56,57.551-223.407,112.849-323.544c27.619-50.083,59.523-97.706,95.28-142.085
				c35.749-44.378,75.37-85.517,118.42-122.445c43.039-36.927,89.52-69.631,138.675-97.086
				c24.574-13.731,49.847-26.075,75.602-37.067C427.305-784.409,453.613-793.908,480.308-801.79z"/>
		</g>
		<g style="clip-path:url(#SVGID_00000002365213680510186740000004068617785289885329_);">
			
				<linearGradient id="SVGID_00000172413129076282627500000005917903098152012200_" gradientUnits="userSpaceOnUse" x1="259.9044" y1="1169.843" x2="849.5962" y2="-428.6466">
				<stop  offset="0" style="stop-color:#005DAB"/>
				<stop  offset="0.0993" style="stop-color:#0561AE;stop-opacity:0.8831"/>
				<stop  offset="0.2201" style="stop-color:#146EB5;stop-opacity:0.7408"/>
				<stop  offset="0.3523" style="stop-color:#2D82C2;stop-opacity:0.5852"/>
				<stop  offset="0.4924" style="stop-color:#4F9FD3;stop-opacity:0.4202"/>
				<stop  offset="0.6374" style="stop-color:#7BC3E9;stop-opacity:0.2494"/>
				<stop  offset="0.6793" style="stop-color:#89CFF0;stop-opacity:0.2"/>
				<stop  offset="1" style="stop-color:#89CFF0;stop-opacity:0"/>
			</linearGradient>
			<path style="fill:url(#SVGID_00000172413129076282627500000005917903098152012200_);" d="M-258.994,942.653
				c6.094,3.327,12.303,6.439,18.465,9.62c6.123,3.25,12.396,6.214,18.628,9.241c3.129,1.487,6.207,3.072,9.373,4.48l9.451,4.308
				c3.159,1.415,6.275,2.915,9.465,4.258l9.552,4.058c25.462,10.813,51.421,20.332,77.713,28.656
				c52.609,16.588,106.608,28.239,161.111,35.018c109.028,13.604,219.895,8.19,326.869-14.215
				c26.754-5.578,53.269-12.239,79.46-19.949c26.193-7.699,52.1-16.341,77.586-26.065c50.953-19.482,100.413-42.786,147.557-70.048
				c47.131-27.264,92.096-58.217,134.014-92.834c20.949-17.314,41.179-35.485,60.533-54.538
				c19.372-19.032,37.915-38.896,55.499-59.571c17.608-20.652,34.293-42.09,49.931-64.254c15.672-22.138,30.288-45.01,43.761-68.527
				c26.988-47.007,49.318-96.659,66.364-148.075c17.089-51.405,28.585-104.643,34.423-158.52
				c2.896-26.943,4.264-54.055,4.169-81.172c0.067-3.391-0.086-6.778-0.128-10.168l-0.2-10.17
				c-0.247-6.776-0.602-13.549-0.908-20.327c-0.515-6.762-0.937-13.535-1.521-20.295l-1.006-10.128
				c-0.346-3.375-0.627-6.76-1.093-10.121c-3.218-26.955-7.837-53.767-14.039-80.24c-6.19-26.476-13.957-52.598-23.095-78.259
				c-9.13-25.67-19.947-50.75-32.053-75.216c-12.103-24.473-25.686-48.245-40.572-71.215
				c-29.729-45.977-64.875-88.607-104.332-127.072c-39.483-38.46-83.327-72.631-130.153-102.494
				c49.081,26,95.452,57.606,137.697,94.283c21.148,18.31,41.189,37.954,60.105,58.676c18.901,20.739,36.551,42.666,52.933,65.544
				c32.653,45.827,60.038,95.63,80.955,148.164c10.513,26.243,19.364,53.17,26.672,80.525c7.298,27.357,13.06,55.156,17.069,83.228
				c0.573,3.499,0.96,7.023,1.412,10.539l1.319,10.554c0.791,7.046,1.417,14.11,2.129,21.168c0.505,7.073,1.055,14.147,1.492,21.228
				l0.482,10.631c0.135,3.545,0.38,7.088,0.404,10.636c0.744,28.376-0.179,56.801-2.633,85.096
				c-4.848,56.61-16.328,112.627-33.435,166.815c-17.128,54.201-40.179,106.484-68.113,155.926
				c-13.984,24.715-29.2,48.718-45.491,71.948c-16.329,23.204-33.72,45.643-52.105,67.234c-18.41,21.568-37.784,42.305-58.06,62.109
				c-20.293,19.784-41.439,38.683-63.395,56.575c-43.928,35.764-90.967,67.623-140.32,95.218
				c-49.356,27.589-100.92,51.146-154.083,70.131c-26.572,9.509-53.5,18.003-80.744,25.291
				c-27.246,7.276-54.772,13.453-82.492,18.503c-27.713,5.091-55.651,8.875-83.672,11.561c-28.022,2.679-56.145,4.216-84.268,4.445
				c-28.12,0.241-56.24-0.624-84.244-2.852c-28-2.229-55.893-5.628-83.542-10.358c-55.289-9.476-109.651-24.022-161.888-43.891
				c-26.127-9.899-51.702-21.16-76.601-33.667C-211.48,971.552-235.649,957.691-258.994,942.653z"/>
		</g>
	</g>
</g>
</svg>
