<?xml version="1.0" encoding="utf-8"?>
<!-- Generator: Adobe Illustrator 16.0.0, SVG Export Plug-In . SVG Version: 6.00 Build 0)  -->
<!DOCTYPE svg PUBLIC "-//W3C//DTD SVG 1.0//EN" "http://www.w3.org/TR/2001/REC-SVG-20010904/DTD/svg10.dtd">
<svg version="1.0" id="Layer_1" xmlns="http://www.w3.org/2000/svg" xmlns:xlink="http://www.w3.org/1999/xlink" x="0px" y="0px"
	 width="100px" height="100px" viewBox="0 0 100 100" enable-background="new 0 0 100 100" xml:space="preserve" style="fill: white;">
<circle cx="39.999" cy="56.667" r="3.333"/>
<circle cx="60" cy="56.667" r="3.333"/>
<path d="M56.465,65.65c-3.456,3.457-9.472,3.457-12.931,0l-3.535,3.535c5.522,5.527,14.48,5.527,20.001,0L56.465,65.65z"/>
<path d="M80.996,45.684c-3.073-7.017-8.994-12.721-16.487-15.992c4.69-3.963,7.75-9.796,7.991-16.357h-5.045
	c-0.277,5.812-3.373,10.885-7.953,13.864c1.843-2.178,2.998-4.958,2.998-8.03h-5.006c0,4.139-3.354,7.498-7.493,7.498v0.001
	c-14.095,0-26.123,7.887-30.998,19.017C13.777,47.262,10,51.556,10,56.667c0,5.106,3.777,9.403,9.005,10.982
	c4.873,11.129,16.901,19.017,30.996,19.017c14.091,0,26.119-7.888,30.995-19.017C86.221,66.07,90,61.773,90,56.667
	C90,51.556,86.221,47.262,80.996,45.684z M76.667,61.666c-0.212,0-0.41-0.032-0.619-0.049
	c-2.604,10.492-13.284,18.382-26.047,18.382c-12.759,0-23.446-7.89-26.05-18.382c-0.207,0.017-0.407,0.049-0.618,0.049
	c-3.613,0-6.667-2.288-6.667-4.999c0-2.712,3.053-5,6.667-5c0.21,0,0.412,0.032,0.618,0.049c1.726-6.948,7.005-12.739,14.072-15.869
	c-0.295,1.064-0.503,2.163-0.503,3.32c0,6.901,5.599,12.5,12.5,12.5c4.146,0,7.506-3.36,7.506-7.5c0-4.141-3.359-7.5-7.506-7.5h-2.5
	v5h2.5c1.38,0,2.5,1.12,2.5,2.5c0,1.38-1.12,2.5-2.5,2.5c-4.141,0-7.5-3.359-7.5-7.5c0-2.111,0.881-4.01,2.285-5.373
	c1.68-0.293,3.415-0.461,5.196-0.461c12.763,0,23.443,7.889,26.047,18.382c0.209-0.017,0.407-0.049,0.619-0.049
	c3.613,0,6.666,2.288,6.666,5C83.333,59.378,80.28,61.666,76.667,61.666z"/>
</svg>
