<?xml version="1.0" encoding="UTF-8"?>
<!DOCTYPE svg PUBLIC "-//W3C//DTD SVG 1.1//EN" "http://www.w3.org/Graphics/SVG/1.1/DTD/svg11.dtd">
<!-- Creator: CorelDRAW -->
<svg xmlns="http://www.w3.org/2000/svg" xml:space="preserve" width="1.70666in" height="1.70666in" version="1.1" style="shape-rendering:geometricPrecision; text-rendering:geometricPrecision; image-rendering:optimizeQuality; fill-rule:evenodd; clip-rule:evenodd"
viewBox="0 0 1706.66 1706.66"
 xmlns:xlink="http://www.w3.org/1999/xlink"
 xmlns:xodm="http://www.corel.com/coreldraw/odm/2003">
 <defs>
  <style type="text/css">
   <![CDATA[
    .fil0 {fill:white; stroke:white; stroke-width:40;} /* Added stroke and increased stroke-width */
   ]]>
  </style>
 </defs>
 <g id="Layer_x0020_1">
  <metadata id="CorelCorpID_0Corel-Layer"/>
  <path class="fil0" d="M1375.27 1706.66l-913.91 0c-83.52,0 -151.11,-68.32 -149.93,-152.62 1.47,-81.28 68.73,-147.31 149.93,-147.31l913.91 0c11.04,0 20,8.97 20,20l0 259.94c0.02,11.04 -8.96,20 -20,20zm-913.91 -259.93c-60.15,0 -109.61,48.93 -109.96,110.24 0,60.36 49.33,109.68 109.96,109.68l893.91 0 0 -219.93 -893.91 0.02z"/>
  <path class="fil0" d="M331.39 1574.33c-11.04,0 -20,-8.97 -20,-20l0 -1381.42c0,-95.35 77.55,-172.91 172.9,-172.91l890.96 0c11.04,0 20,8.96 20,20l0 1406.72c0,26.33 -40,26.32 -40,0l0 -1386.72 -870.95 0c-73.28,0 -132.9,59.63 -132.9,132.92l0 1381.41c-0.01,11.06 -8.96,20.02 -20.01,20.02z"/>
  <path class="fil0" d="M517.2 1446.72c-11.04,0 -20,-8.97 -20,-20l0 -1406.71c0,-26.33 40,-26.33 40,0l0 1406.7c0,11.04 -8.96,20.02 -20,20.02z"/>
  <path class="fil0" d="M775.11 1613.76c-12.72,0 -59.02,-40.15 -76.16,-53.31l-64 49.17c-13.11,10.08 -32.19,0.68 -32.19,-15.86l0 -167.04c0,-26.33 40,-26.32 40,0l0 126.46c65.28,-50.16 47.1,-50.16 112.36,0l0 -126.46c0,-26.33 40,-26.32 40,0l0 167.04c0,11.11 -9.06,20.01 -20.01,20.01z"/>
  <path class="fil0" d="M945.84 915.71c-30.13,0 -50.62,-41 -75.68,-75.3 -20.07,8.88 -66.11,32.41 -83.28,32.41 -47.7,0 -43.07,-58.12 -48.48,-108.47 -41.78,-4.5 -88.06,-1.88 -103.45,-28.56 -15.06,-26.1 10.2,-64.36 27.37,-103.21 -33.92,-24.77 -75.31,-45.63 -75.31,-76.44 -0.01,-30.13 41.03,-50.65 75.31,-75.69 -16.97,-38.39 -42.39,-77.19 -27,-103.86 15.07,-26.1 60.86,-23.35 103.07,-27.9 5.22,-48.42 1.1,-108.73 48.55,-108.73 16.24,0 63.85,24.12 83.22,32.68 24.78,-33.92 45.63,-75.31 76.45,-75.31 30.13,0 50.65,41.04 75.69,75.33 19.98,-8.83 66.17,-32.42 83.26,-32.42 47.68,0 43.05,58.06 48.48,108.47 41.76,4.5 88.06,1.88 103.46,28.56 15.05,26.07 -10.22,64.37 -27.38,103.19 33.95,24.8 75.3,45.63 75.3,76.44 0,30.13 -41.02,50.65 -75.3,75.7 17,38.42 42.41,77.15 27,103.86 -15.06,26.09 -60.86,23.34 -103.07,27.88 -5.22,48.39 -1.09,108.75 -48.55,108.75 -16.23,0 -63.84,-24.11 -83.2,-32.67 -24.8,33.96 -45.62,75.3 -76.47,75.3zm-69.15 -120.01c23.82,0 55.6,72.2 69.22,79.99l53.4 -71.63c5.56,-7.59 15.82,-10.57 24.43,-6.75l81.78 35.78 10.47 -88.72c1,-9.35 8.42,-17.06 17.76,-18.06l88.85 -9.97 -35.43 -81.99c-3.79,-8.6 -1.22,-18.99 6.37,-24.53l71.94 -53.06 -71.68 -53.3c-7.6,-5.54 -10.56,-15.82 -6.75,-24.41l35.76 -81.93 -88.72 -10.32c-9.35,-1 -17.07,-8.41 -18.07,-17.78l-9.98 -88.83 -82 35.43c-8.56,3.79 -18.97,1.24 -24.53,-6.36l-53.06 -71.94 -53.29 71.68c-5.56,7.6 -15.85,10.54 -24.43,6.75l-81.78 -35.78 -10.47 88.72c-1.02,9.35 -8.41,17.06 -17.76,18.06l-88.83 9.98 35.43 81.98c3.81,8.61 1.22,18.99 -6.36,24.53l-71.95 53.06 71.68 53.3c7.59,5.54 10.56,15.82 6.75,24.41l-35.76 81.93 88.72 10.32c9.35,1.01 17.05,8.41 18.06,17.76l9.97 88.83c9.38,-0.52 77.98,-37.15 90.25,-37.15z"/>
  <path class="fil0" d="M946.22 716.12c-88,0 -159.59,-71.59 -159.59,-159.59 0,-88 71.59,-159.59 159.59,-159.59 88.02,0 159.61,71.59 159.61,159.59 0.02,88 -71.59,159.59 -159.61,159.59zm0 -279.19c-65.94,0 -119.59,53.65 -119.59,119.59 0,65.94 53.65,119.59 119.59,119.59 65.96,0 119.59,-53.65 119.59,-119.59 0,-65.94 -53.62,-119.59 -119.59,-119.59z"/>
  <path class="fil0" d="M1151.46 1249.43c-4.34,0 -8.63,-1.42 -12.18,-4.15l-193.05 -148.3 -193.06 148.3c-13.11,10.08 -32.18,0.68 -32.18,-15.86l0 -484.92c0,-26.33 40,-26.33 40,0l0 444.34 173.05 -132.92c7.2,-5.53 17.17,-5.53 24.36,0l173.06 132.92 0 -444.34c0,-26.32 40,-26.32 40,0l0 484.93c0,11.1 -9.04,20 -20,20z"/>
 </g>
</svg>
