<?xml version="1.0" encoding="iso-8859-1"?>
<!-- Generator: Adobe Illustrator 24.1.2, SVG Export Plug-In . SVG Version: 6.00 Build 0)  -->
<svg version="1.1" baseProfile="basic" xmlns="http://www.w3.org/2000/svg" xmlns:xlink="http://www.w3.org/1999/xlink" x="0px"
	 y="0px" viewBox="0 0 32 32" xml:space="preserve">
<g id="Layer_2" style="display:none;">
	<g style="display:inline;">
		<rect x="5" y="5" style="fill:none;stroke:#E6E6E6;stroke-width:2;stroke-miterlimit:10;" width="22" height="22"/>
		<circle style="fill:none;stroke:#B3B3B3;stroke-width:2;stroke-miterlimit:10;" cx="16" cy="16" r="12"/>
	</g>
</g>
<g id="Layer_1">
	<path d="M27.034,9.134c-0.144-0.231-0.456-0.305-0.687-0.162c-4.134,2.557-8.116,7.584-10.49,11.542
		c-0.176,0.292-0.488,0.476-0.83,0.485c-0.009,0-0.019,0-0.028,0c-0.331,0-0.641-0.164-0.828-0.439
		c-1.044-1.539-3.222-3.847-4.677-4.698c-0.477-0.278-0.638-0.891-0.359-1.368c0.278-0.478,0.889-0.638,1.368-0.359
		c1.299,0.759,2.923,2.322,4.164,3.791c0.129,0.153,0.36,0.141,0.47-0.027c2.643-4.02,6.387-8.368,10.357-10.751
		c-0.001-0.001-0.002-0.002-0.003-0.003h0c0.631-0.38,1.254-0.702,1.861-0.962c0.508-0.217,0.744-0.805,0.527-1.313
		c-0.219-0.509-0.81-0.743-1.313-0.526c-0.858,0.367-1.738,0.844-2.622,1.413c-2.665-2.079-6.139-3.164-9.881-2.617
		C8.367,3.974,3.814,8.627,3.103,14.342c-1.055,8.478,6.114,15.631,14.596,14.55c5.881-0.75,10.589-5.564,11.223-11.459
		C29.252,14.376,28.513,11.502,27.034,9.134z"/>
</g>
</svg>